<!DOCTYPE svg PUBLIC "-//W3C//DTD SVG 1.1//EN" "http://www.w3.org/Graphics/SVG/1.1/DTD/svg11.dtd">
<!-- Uploaded to: SVG Repo, www.svgrepo.com, Transformed by: SVG Repo Mixer Tools -->
<svg height="800px" width="800px" version="1.1" xmlns="http://www.w3.org/2000/svg" xmlns:xlink="http://www.w3.org/1999/xlink" viewBox="0 0 64 64" xml:space="preserve" fill="#000000">
<g id="SVGRepo_bgCarrier" stroke-width="0"/>
<g id="SVGRepo_tracerCarrier" stroke-linecap="round" stroke-linejoin="round"/>
<g id="SVGRepo_iconCarrier"> <style type="text/css"> .st0{fill:#047857;} .st1{opacity:0.2;} .st2{fill:#231F20;} .st3{fill:#ffffff;} </style> <g id="Layer_1"> <g> <circle class="st0" cx="32" cy="32" r="32"/> </g> <g class="st1"> <g> <path class="st2" d="M10,34.5c0,3.7,0.9,7.5,2.9,11c2,3.5,4.8,6.2,8.1,8.1l11-19.1H10z"/> </g> <g> <path class="st2" d="M43,53.5c7.1-4.1,11-11.5,11-19.1l-22,0L43,53.5z"/> </g> <g> <path class="st2" d="M43,15.4c-6.6-3.8-14.9-4.1-22,0l11,19.1L43,15.4z"/> </g> </g> <g> <g> <path class="st3" d="M10,32.5c0,3.7,0.9,7.5,2.9,11c2,3.5,4.8,6.2,8.1,8.1l11-19.1H10z"/> </g> <g> <path class="st3" d="M43,51.5c7.1-4.1,11-11.5,11-19.1l-22,0L43,51.5z"/> </g> <g> <path class="st3" d="M43,13.4c-6.6-3.8-14.9-4.1-22,0l11,19.1L43,13.4z"/> </g> </g> </g> <g id="Layer_2"> </g> </g>
</svg>